<mxfile host="app.diagrams.net" modified="2021-09-13T15:42:49.190Z" agent="5.0 (X11; Linux x86_64) AppleWebKit/537.36 (KHTML, like Gecko) Chrome/91.0.4472.77 Safari/537.36" etag="fzoBe1oUTEuntOV7RoIq" version="14.9.9" type="github">
  <diagram id="evT2ZDi0HOrq3EN7Jgqi" name="Page-1">
    <mxGraphModel dx="2200" dy="774" grid="1" gridSize="10" guides="1" tooltips="1" connect="1" arrows="1" fold="1" page="1" pageScale="1" pageWidth="850" pageHeight="1100" math="0" shadow="0">
      <root>
        <mxCell id="0" />
        <mxCell id="1" parent="0" />
        <mxCell id="GwhG1wv8wPMSzIeX0bUs-1" value="App" style="swimlane;fontStyle=1;align=center;verticalAlign=top;childLayout=stackLayout;horizontal=1;startSize=26;horizontalStack=0;resizeParent=1;resizeParentMax=0;resizeLast=0;collapsible=1;marginBottom=0;" parent="1" vertex="1">
          <mxGeometry x="425" y="70" width="160" height="34" as="geometry" />
        </mxCell>
        <mxCell id="GwhG1wv8wPMSzIeX0bUs-3" value="" style="line;strokeWidth=1;fillColor=none;align=left;verticalAlign=middle;spacingTop=-1;spacingLeft=3;spacingRight=3;rotatable=0;labelPosition=right;points=[];portConstraint=eastwest;" parent="GwhG1wv8wPMSzIeX0bUs-1" vertex="1">
          <mxGeometry y="26" width="160" height="8" as="geometry" />
        </mxCell>
        <mxCell id="GwhG1wv8wPMSzIeX0bUs-5" value="PaymentController" style="swimlane;fontStyle=1;align=center;verticalAlign=top;childLayout=stackLayout;horizontal=1;startSize=26;horizontalStack=0;resizeParent=1;resizeParentMax=0;resizeLast=0;collapsible=1;marginBottom=0;" parent="1" vertex="1">
          <mxGeometry x="280" y="180" width="500" height="200" as="geometry" />
        </mxCell>
        <mxCell id="GwhG1wv8wPMSzIeX0bUs-6" value="- decoder: ServerRequestDecoder&#xa;- repository: IOrderRepository&#xa;- moneyServiceAFacade: MoneyServiceAFacade" style="text;strokeColor=none;fillColor=none;align=left;verticalAlign=top;spacingLeft=4;spacingRight=4;overflow=hidden;rotatable=0;points=[[0,0.5],[1,0.5]];portConstraint=eastwest;" parent="GwhG1wv8wPMSzIeX0bUs-5" vertex="1">
          <mxGeometry y="26" width="500" height="54" as="geometry" />
        </mxCell>
        <mxCell id="GwhG1wv8wPMSzIeX0bUs-7" value="" style="line;strokeWidth=1;fillColor=none;align=left;verticalAlign=middle;spacingTop=-1;spacingLeft=3;spacingRight=3;rotatable=0;labelPosition=right;points=[];portConstraint=eastwest;" parent="GwhG1wv8wPMSzIeX0bUs-5" vertex="1">
          <mxGeometry y="80" width="500" height="8" as="geometry" />
        </mxCell>
        <mxCell id="GwhG1wv8wPMSzIeX0bUs-8" value="+ PaymentController(&#xa;    ServerRequestDecoder,&#xa;    OrderRepository,&#xa;    MoneyServiceAFacade&#xa;): void&#xa;+ makePayment(Psr\Http\Message\ServerRequestInterface): Laminas\Diactoros\Response&#xa;- prepareParamSum(?array): ?array" style="text;strokeColor=none;fillColor=none;align=left;verticalAlign=top;spacingLeft=4;spacingRight=4;overflow=hidden;rotatable=0;points=[[0,0.5],[1,0.5]];portConstraint=eastwest;" parent="GwhG1wv8wPMSzIeX0bUs-5" vertex="1">
          <mxGeometry y="88" width="500" height="112" as="geometry" />
        </mxCell>
        <mxCell id="GwhG1wv8wPMSzIeX0bUs-24" value="MakePaymentValidator" style="swimlane;fontStyle=1;align=center;verticalAlign=top;childLayout=stackLayout;horizontal=1;startSize=26;horizontalStack=0;resizeParent=1;resizeParentMax=0;resizeLast=0;collapsible=1;marginBottom=0;" parent="1" vertex="1">
          <mxGeometry x="-110" y="290" width="310" height="150" as="geometry" />
        </mxCell>
        <mxCell id="GwhG1wv8wPMSzIeX0bUs-26" value="" style="line;strokeWidth=1;fillColor=none;align=left;verticalAlign=middle;spacingTop=-1;spacingLeft=3;spacingRight=3;rotatable=0;labelPosition=right;points=[];portConstraint=eastwest;" parent="GwhG1wv8wPMSzIeX0bUs-24" vertex="1">
          <mxGeometry y="26" width="310" height="8" as="geometry" />
        </mxCell>
        <mxCell id="GwhG1wv8wPMSzIeX0bUs-27" value="+ MakePaymentValidator(): void&#xa;+ validate(?array): ValidatorResultDto&#xa;- validateParamsKeys(array): ValidatorResultDto&#xa;- validateCardHolder(string): ValidatorResultDto&#xa;- validateCardNumber(string): ValidatorResultDto&#xa;- validateCardExpiration(string): ValidatorResultDto&#xa;- ...&#xa;" style="text;strokeColor=none;fillColor=none;align=left;verticalAlign=top;spacingLeft=4;spacingRight=4;overflow=hidden;rotatable=0;points=[[0,0.5],[1,0.5]];portConstraint=eastwest;" parent="GwhG1wv8wPMSzIeX0bUs-24" vertex="1">
          <mxGeometry y="34" width="310" height="116" as="geometry" />
        </mxCell>
        <mxCell id="GwhG1wv8wPMSzIeX0bUs-28" value="«interface»&#xa; IMakePaymentValidator" style="swimlane;fontStyle=1;childLayout=stackLayout;horizontal=1;startSize=30;fillColor=none;horizontalStack=0;resizeParent=1;resizeParentMax=0;resizeLast=0;collapsible=1;marginBottom=0;" parent="1" vertex="1">
          <mxGeometry x="-60" y="190" width="220" height="56" as="geometry" />
        </mxCell>
        <mxCell id="GwhG1wv8wPMSzIeX0bUs-30" value="+ validate(?array): ValidatorResultDto" style="text;strokeColor=none;fillColor=none;align=left;verticalAlign=top;spacingLeft=4;spacingRight=4;overflow=hidden;rotatable=0;points=[[0,0.5],[1,0.5]];portConstraint=eastwest;" parent="GwhG1wv8wPMSzIeX0bUs-28" vertex="1">
          <mxGeometry y="30" width="220" height="26" as="geometry" />
        </mxCell>
        <mxCell id="GwhG1wv8wPMSzIeX0bUs-36" value="" style="endArrow=block;dashed=1;endFill=0;endSize=12;html=1;exitX=0.5;exitY=0;exitDx=0;exitDy=0;entryX=0.464;entryY=0.962;entryDx=0;entryDy=0;entryPerimeter=0;" parent="1" source="GwhG1wv8wPMSzIeX0bUs-24" target="GwhG1wv8wPMSzIeX0bUs-30" edge="1">
          <mxGeometry width="160" relative="1" as="geometry">
            <mxPoint x="340" y="380" as="sourcePoint" />
            <mxPoint x="500" y="380" as="targetPoint" />
          </mxGeometry>
        </mxCell>
        <mxCell id="GwhG1wv8wPMSzIeX0bUs-38" value="" style="endArrow=diamondThin;endFill=1;endSize=24;html=1;entryX=0;entryY=0.259;entryDx=0;entryDy=0;entryPerimeter=0;exitX=1;exitY=0.5;exitDx=0;exitDy=0;" parent="1" source="GwhG1wv8wPMSzIeX0bUs-28" target="GwhG1wv8wPMSzIeX0bUs-6" edge="1">
          <mxGeometry width="160" relative="1" as="geometry">
            <mxPoint x="340" y="380" as="sourcePoint" />
            <mxPoint x="500" y="380" as="targetPoint" />
          </mxGeometry>
        </mxCell>
        <mxCell id="GwhG1wv8wPMSzIeX0bUs-39" value="Use" style="endArrow=open;endSize=12;dashed=1;html=1;entryX=0.456;entryY=0;entryDx=0;entryDy=0;entryPerimeter=0;" parent="1" target="GwhG1wv8wPMSzIeX0bUs-5" edge="1">
          <mxGeometry width="160" relative="1" as="geometry">
            <mxPoint x="508" y="110" as="sourcePoint" />
            <mxPoint x="500" y="380" as="targetPoint" />
          </mxGeometry>
        </mxCell>
        <mxCell id="GwhG1wv8wPMSzIeX0bUs-40" value="«interface»&#xa; IOrderRepository" style="swimlane;fontStyle=1;childLayout=stackLayout;horizontal=1;startSize=30;fillColor=none;horizontalStack=0;resizeParent=1;resizeParentMax=0;resizeLast=0;collapsible=1;marginBottom=0;" parent="1" vertex="1">
          <mxGeometry x="800" y="80" width="220" height="56" as="geometry" />
        </mxCell>
        <mxCell id="GwhG1wv8wPMSzIeX0bUs-41" value="+ setOrderIsPaid(string, float): bool" style="text;strokeColor=none;fillColor=none;align=left;verticalAlign=top;spacingLeft=4;spacingRight=4;overflow=hidden;rotatable=0;points=[[0,0.5],[1,0.5]];portConstraint=eastwest;" parent="GwhG1wv8wPMSzIeX0bUs-40" vertex="1">
          <mxGeometry y="30" width="220" height="26" as="geometry" />
        </mxCell>
        <mxCell id="GwhG1wv8wPMSzIeX0bUs-43" value="" style="endArrow=diamondThin;endFill=1;endSize=24;html=1;entryX=1.004;entryY=0.37;entryDx=0;entryDy=0;exitX=0.5;exitY=1;exitDx=0;exitDy=0;exitPerimeter=0;entryPerimeter=0;" parent="1" source="GwhG1wv8wPMSzIeX0bUs-41" target="GwhG1wv8wPMSzIeX0bUs-6" edge="1">
          <mxGeometry width="160" relative="1" as="geometry">
            <mxPoint x="170" y="228" as="sourcePoint" />
            <mxPoint x="290" y="229.986" as="targetPoint" />
          </mxGeometry>
        </mxCell>
        <mxCell id="GwhG1wv8wPMSzIeX0bUs-44" value="OrderRepository" style="swimlane;fontStyle=1;align=center;verticalAlign=top;childLayout=stackLayout;horizontal=1;startSize=26;horizontalStack=0;resizeParent=1;resizeParentMax=0;resizeLast=0;collapsible=1;marginBottom=0;" parent="1" vertex="1">
          <mxGeometry x="710" width="310" height="34" as="geometry" />
        </mxCell>
        <mxCell id="GwhG1wv8wPMSzIeX0bUs-45" value="" style="line;strokeWidth=1;fillColor=none;align=left;verticalAlign=middle;spacingTop=-1;spacingLeft=3;spacingRight=3;rotatable=0;labelPosition=right;points=[];portConstraint=eastwest;" parent="GwhG1wv8wPMSzIeX0bUs-44" vertex="1">
          <mxGeometry y="26" width="310" height="8" as="geometry" />
        </mxCell>
        <mxCell id="GwhG1wv8wPMSzIeX0bUs-48" value="" style="endArrow=block;dashed=1;endFill=0;endSize=12;html=1;" parent="1" edge="1">
          <mxGeometry width="160" relative="1" as="geometry">
            <mxPoint x="880" y="40" as="sourcePoint" />
            <mxPoint x="880" y="80" as="targetPoint" />
          </mxGeometry>
        </mxCell>
        <mxCell id="GwhG1wv8wPMSzIeX0bUs-55" value="MoneyServiceAFacade" style="swimlane;fontStyle=1;align=center;verticalAlign=top;childLayout=stackLayout;horizontal=1;startSize=26;horizontalStack=0;resizeParent=1;resizeParentMax=0;resizeLast=0;collapsible=1;marginBottom=0;" parent="1" vertex="1">
          <mxGeometry x="800" y="350" width="230" height="60" as="geometry" />
        </mxCell>
        <mxCell id="GwhG1wv8wPMSzIeX0bUs-57" value="" style="line;strokeWidth=1;fillColor=none;align=left;verticalAlign=middle;spacingTop=-1;spacingLeft=3;spacingRight=3;rotatable=0;labelPosition=right;points=[];portConstraint=eastwest;" parent="GwhG1wv8wPMSzIeX0bUs-55" vertex="1">
          <mxGeometry y="26" width="230" height="8" as="geometry" />
        </mxCell>
        <mxCell id="GwhG1wv8wPMSzIeX0bUs-58" value="+ pay(array): StatusMessageDto" style="text;strokeColor=none;fillColor=none;align=left;verticalAlign=top;spacingLeft=4;spacingRight=4;overflow=hidden;rotatable=0;points=[[0,0.5],[1,0.5]];portConstraint=eastwest;" parent="GwhG1wv8wPMSzIeX0bUs-55" vertex="1">
          <mxGeometry y="34" width="230" height="26" as="geometry" />
        </mxCell>
        <mxCell id="GwhG1wv8wPMSzIeX0bUs-60" value="" style="endArrow=diamondThin;endFill=1;endSize=24;html=1;entryX=1.002;entryY=0.833;entryDx=0;entryDy=0;entryPerimeter=0;exitX=0.5;exitY=0;exitDx=0;exitDy=0;" parent="1" source="GwhG1wv8wPMSzIeX0bUs-55" target="GwhG1wv8wPMSzIeX0bUs-6" edge="1">
          <mxGeometry width="160" relative="1" as="geometry">
            <mxPoint x="570" y="430" as="sourcePoint" />
            <mxPoint x="730" y="430" as="targetPoint" />
          </mxGeometry>
        </mxCell>
        <mxCell id="GwhG1wv8wPMSzIeX0bUs-61" value="" style="shape=image;verticalLabelPosition=bottom;labelBackgroundColor=#ffffff;verticalAlign=top;aspect=fixed;imageAspect=0;image=data:image/png,iVBORw0KGgoAAAANSUhEUgAAANYAAADBCAIAAAA8UtlaAAAgAElEQVR4Ae2de1ATV9/H+x/P7MxOJpPJ7GTCMDAwMjg44CCDjuAjOiIOXh9Q0YKvVfBWtYKCV0RFrYJ4wdp6aWuxVrRQL0VUEK1QQAJylWsg2Vif1urztD5trQiE7Du7m2w22T1hQ25ET4bR5eTsuXzPh3P2bPab33sEfEEFXKrAey6tHVYOFSAgghACFysAEXTxAMDqIYKQARcrYECw9j0C/kAF7K6AALyNCGrgCypgbwUEEMhsR2rfs3ftsDyogAYiCCFwsQIQQRcPAKweIggZcLECEEEXDwCsHiIIGXCxAhBBFw8ArN6eCHapNVcf43n1mv215E9ePflrlxqKDBWwpIDdEHzQqTlQq9nz0PznQK3mQaelFsD33nEF7IPgg07Nnoc4lz9DCm6ZQlzdWX358Pq4KUHemFiMeY8Ln7ssNftKdTeO47jq3tH48PHxJ2tVwodqZGdZLh9XVR6eLkI84z59yNMSXKU4E++NiCIP3Od513LJrn0Xx9XtRWnhYzARgnggiAjzGhM8df7ylAPnihVdONM2R0hKF24HBLvU/POfgT9yXjxQqwGtyDje8+PJOD8UQX3C45I2bklLXb8iLjJANnHXbSWJYM+Nzf6oeG6edQiO5CxGbt4DvOf7LQGohwc6bv23j9XGsdFoNDiubivaGES+OXbL9z28p4/aRBxXt375vtQDDV6Uvnffvr27d2xZlzBrvCeKINiExONlbWqc7OzIBkJIr+2A4NXHxvlvd7Xq/3LOzUhcPTV26fyPdqbfrGNAvPrYZNiYxuHK4rRxKOK95ExtrzGxt+1xB3kVObKej+wspnbeA3VbfqLU4x//+AcimZldaTLV4aofc2dJEQ8PDwRb8XUH7+mjNtGAoCT2VJ2Koo2UXdV67+zayRiC+i46VU2OiyMkpTWxA4J59cbrv8TDZ2LT9m2/27Kromtd/s0d99oZBPPq+UdB3Xo+QeohmnG4UsXDqL7nHuTY0y9xVDadU9VUmBE3LWSMXCISy8aEzln9cZFCSdcBOourI46rqo5Ei9HAtGL97KVuLfssbfHUQC+JSOIZMGlWYs4taj1S1RybLUZDli6biaFj13/bZpgIqYVs4zhUGrXs/VBUMv+kcSDV7Q/yM1dEh/hgEpn/xLlrDhUplPo+gmoBpVvorL7L3Q+LcjbGRYz1korEmM+4ydGLktO/rDD+VYMaw4sgzVx1XpwngvolX2xVG5YjvoHQaDTqzqqCA6vnho2RSTHfCdErMvN/aBe6D7UDguxdyIzEVdvLWhjs2AcHavkRxHvvZISiiHhyyuU6peGvkMmqhwYNSczMPUq9jp8vbaWGH++8tm/Z6s279h08sHfrimm+KCIO3327m7VqcM4aFkFcpTi9yBsVjZ21dteh7OwDGZuWJ524T/1t9JbtnoiKY3LLCjcFodLZx6r1EyGuqsmbh6GBG67cPTZHLArfd4+eS9Qdt7OiPVHx2Fmrd+4/mPlR7HgpIgrZWNiixkG1gNJJIMCdJd/tvp8b64ciknExyWkZmZk7U1dG+aMeWHJBN62kpcboF2KTWVCPdWfRRn8UkS/Pf6y2NBBd5TnzfFAEC5m/Jn3H1g8XhnkiiGdUZokwCh2BYDObPOYYiCCuaipKnyJDPBBZaFxq7qXyRsNUIXz+x/HOm9snoujYzTfIiZCLml5TzpWl2SyobvliqZRaTTl/DMrvNvog0qVftPRWHY2RoiHpxV1Unu6SHaGoJDq7soecztExKdd6yEvY3geHZ0jQwKT8eppIXFX/RaIvKpl9tEYFqgWUzvxBGnph1llV5ZFoKSKJ2HajlfprwXF189l4qQFBy40BzYKkjOomshh0YmZZL1hSVWVOtATBZmTeaqenBrzzfs48T0QUnlnGnVPM+qLR2ONJGdOF+PS/NmduL2veeb9j9dmi1KIKBkHQQkwRo+6sLsxNXTTRG0U8EMnYmA15JY16NYfZWOC4StnR2tqh7Ly8Wo5I3/+SWjQ4qBkGz7w0MwTxru82+qNo0IozFR3MhRHdQvJSEJGtLlDi6taC1f6od8KXjSpc3ZS/3Af1S/q6RY0rr6yRI9jy/HZyH1++L1yEjttYoGhgXpV5CyXk+20qanbhqQVQOzNs/J1VPfh4mgjxWp7fql/7zBG03Bi1itqO8M2CeHdBMoZQeywggqr7ByJFiPeqS23GlRfvup46DkWDtpX08FxcMd2hD+wwC5ptRxIPn45KXBW5MDE2be+20iYGQdB2hN0gdWfdra/2r4zwRBBxyNpLDSrDJQjfjljVVHJ8/bxQbzGCeHggKCbDEEQaf7aZvG4ZMYK4SvHNpimeCIJ6T1qUcqTgvmFeUdV9skCCBmy+QV4yKsv2hovEMw5XKMkZQDR5dym5ee8pThuLSuI+faTC8c5vVmKI4fLV+L+Hh2RunqJX3QuqhTddo9FY6mx3wSoZIib3SPrxNkdwmMaAEVQ3nV083CzYXbAKQ8TRuVWG2sm/WFXD6YUSD+nis41GLtkDzT62A4I23pRht4Y+VnfczpwmRtBJluZ/VWXubBkiClywJffcpW+LCgvOpkVLBSD4/ZaxqDjmaI3hSo6zHdFoND1N5d/kbIoNwRAE9YnZU0xOrKoHh6aJ0NCMUmp7qKo/s1iOBq3ZtS4YlcV9qiBLw3vLdoehNAp416UkDEHD1p8uumr6ulaq0F+fcWuhu89Nxy13liKM6hMAQYuNsbQQdxSu90cR2bJ8UgHzBYRuLd5FTpTi6NxqFyKo0ZCff9hya9qMQhzvLcuchHpgH1zowPGekq1BqDj6SJXJfRBVzdEYMTrmw8IOw0WbsvBDLxaCvGfhuOru3nARGrytRL//NVuI2S3BlY+u7YqWIeQWvFfdc2tnCCqKPPgDRRuu7ijaMBb18PBA/T/U745xakHUXzhRPUC8V15kLU/swpljdi0mSz+rdqXlzvbe3jUBRf03FHUCELTYGBCC5P3aEwvkCOq7krzKAA0Errp/YKoI8VlVwOop3n2DWoi33nTOQkyrOeIP6HBVa82PzezrVrz7h+w5GIIGbS3pIRHJjRYj3iu/Jv8SmZFTKfLmSvSpdKIpgvxnaTSa9oI1vggauvk6fVfFAoLk8ldBTn2B6cVKtfLaJj+EPX323MuaIvIQhe8pM9wJUtUcnyNG/VNvkPsRZenuySginZZRYnYfm+kCc8DU0sPqILv27lrLne0qTh+PIl5xJyppGXFcVX8qVmLcjlhqDC+CeG9z2aerJkoR1CfuZBV9X5BfUhxXVWTPlCBYdFZph3470v3gaKwXor8+YboJOrDDQswUPbLHFFSV2VFise+kecvWpaRv27p5/bLZwRjigY6J/7S6l2RORe4tEdR3+sqtuzN3bEyMy7jejeOq6rx5cgT1jkjcsvdwTk5O9v5VUySGWRB0FrlcdpdlTccQRB4at25rRmZmxtbkmb6o4b6guvXCumlxa7ZnZefm5hzYvmKaN4qOXVvQqlJT640k7tMGZgVXd9RX3K+oo3VnLoAQbFUBtaNXP/5+1zQ5gkgCopZt2pGZuXtHysrYWTuuKckxB9TSks9fu6pqmM42XFwdLEJQ32mJqRlZe9JXzQnCEA8DguR9O3BjDAiiQXEpO3ft2rk97aPkxdPHYeS+MHjpkdvk/Rh6iHkHgux4Z9nhud4ogk2IXZu+c9v6xZM8EUQ+PeMma15kIOEe2BNBbulCUlRtlZeP7UiOjQz2xUQoKvEMmDgrMe3ENeYuLo4ra77ZFR/hLxOhEu+gaUv2XWsmL3JVTSUnPiLvxUpQVIx5+wdPmj4v8VBxh+EDJf6zyBMbbx5bP3/iGAxFUYnMZ9zEqLiVOy9SV4eqhqJ9y2eFjpGJUFQk8w+LWZmZX0GWSH+IJU04b9h1cruG05+fSJd83qK/Ble3V3y9f/XcSf5yMSrCfIKmxq45cadDjYNqAaUP21ny+rXuWs76+ZP8MbHEK2j6++vfnyxCfDde1c/QJIWAxuDkRUU68xkxKvX0Cwqfk7Bx72fXazpNNhOggaBuTf94af/qOaF+mATzCYn+YPf5+8L4s89NGe5gwBTXKoCr266lhKDS2E/qTC6gXdsqUO2unwVBLYPpwhXoKc1duWJ9+s7MrIMf78/cuiY2VI6KwzZfoz9GEl6OS3JCBF0iuz0rJZ/TKclJXjA12E8mpq9kYpZv/7SkkbqStmdNjikLIugYXWGpghWACAqWCmZ0jAIQQcfoCksVrABEULBUMKNjFIAIOkZXWKpgBaxDEH6/IFTA/goIYND4/YICMsMsUAH7KwARtL+msESrFIAIWiUXzGx/BSCC9tcUlmiVAhBBq+SCme2vAETQ/prCEq1SYHgEdYOvB59VDXTlv2k5/qbl+EBX/uCzKt3ga6uqgZmhAiAFhkFw6GX3m5YTb5pyzH9aTgy97AYVCtOhAsIVsIQgyV/zEXP4GBybj0AKhQsNc4IUACKoG/zbbP77Li951aLI/R/NN0LZckI3+Ddv0YONpa8/W/f6s3WDjaW8GWAiVIBWAIjg4LMqI2rUzLchYcazyiyzxMFnVbxSvv48Rffqpe7Vy9efp/BmgIlQAVoBIILk/oNZc6mDpIVTzVLeNOUMdOXzSvn6ZDKdzhzwZiOGXlQcSZo/NdhXJhbLAqavzrt64/TWJZGBnjLvkLlbLrb+qTOcN/jrw3Np8ZGBXnL/iIQ917peke/o/u75Pithij8mlvqEzNpx+9kQKJHQPr2RGhXsg4kl3uNnbzij+I/WUPLQ780FuxOmBsgk5NdtzU5MK1RS7/HWaDgJ/m8vBYAI9rea7EJWxv2T/vkuL5kNYn/rCW5TXp9MMvvh5tGnaFVfzMMmpF5RNDc3Vl5KDRejYxYdLKqob6wrPb50jHjK0ZYBKmdfa160Z9jazx+0drdXX9gwURqWpXhFUGeHfJhf065UtinKFXg/QfAnEoTulaquqqGtq+tx1cVN4dLA7RV/UXi/6Ty7wNNzRvqFe3XNTYrbB2dLfHb82E8Q/DUCOwLfGKkCQhF805SzMu6fbPjoY3sgKJtxqpOadrRPv4nHAvcqaOr667KCsbj8J1qC0P1ZluLrt6nsf/ScOPS8aDkWuKe2f7ApO0wafbKtj9193kR2BkKr+SpWFpnXPkgQxKsHW/2l88710nXqXhavxkgEQTWalAN/sYcCQAS5CzEvgrwLsdkU+PpkErCp5DzGIEi8Lk+RyTaU/kVl1/aem4NNP9mhJYjB9rxIESqWYoaXRIRga26+HOpXFa2dIPWK+CDrwg/Kl/qllTeR6P+l6kza0qiwsX4BEyJCfMQTs5sHCULbcXK6dMrxxySN5BpuQBBUI3NdQOeH/9quABBB7naEF0He7ciIEeyvSJdj627RF4BaTT45V7UNEsRg24lISWhGmfqJ8fX0xSsKOd3rfz+6enRNpLdobEJ+1xtaEk6iVp0fJ/dbnHOroUut7q7MjpHSCA62HZ8qpTknzzQiaKFG21WHJbAUACLIvSnDgyDgpozdEdT9785Gb8lcw3LJaj9z+PrxiZnSCR830AuqPtmY2FeeIsM+1MM99LxwmYxGUPd78Rq5LPHKL+Q+hoWggBqZquGBTQoAESQIwhm3pk0XYtAsSBCvmnKjMM8ZW86X1jY1N9SUFd5pe6UjtD/XXL1Z3dyp7H5c/dXa8dKYM0otIFF5drbUf+mxO486lD3dNcfmYjSChO6P6t1h4oAlR4oVLa2K26eSQkT0doS/RpvEhifzKWAJQT2FDv2ATiiCBDH4XHF+e/yUALlYLB8bsfjg/RdDRH9b/soZ4zzFqEg+NjIh87tO8k4NbyJBvO75PitxaoBMJJLI/YIj5my40ktfO+r+7i05lBQT6ot5BscsXzhJ7JdRTe6seWvk0xCm2aTAMAiSa9O79JiC/vqT2ivbpCs8WbACwyMouCg3zajFK74t/kHR3NbeUnvzxPIg2cyTbdQk6Kb9cbtmv/MI6v54mLdsZliAl1QiDwhfmPpZ5b8hgE7F+J1H0Klqw8p4FIAI8ogCk5ypAETQmWrDungUgAjyiAKTnKkARNCZasO6eBSACPKIApOcqQBE0Jlqw7p4FIAI8ogCk5ypwPAIvlMf0DlTelgXrcAwCEIfMQTF0QpYQtAZD2vx9k/39y9tDxtwyqDEm4FJFJ6TOQUejDIFgAhyH1l1no94oPHQBGxJwc/0Y6SWFBOe01Ip8D1XKgBEkPvgvvN8xMLBEp7TlSLDui0pAESQa19yiI+Y1whMgoXS4c49PGSb7/cRIBcwN6cplEO/XEmQhR5uGuB3HFtSBr7nJAWACDrHR8xrBCYojOblKVRqtVqteU5eEwJcwNycAAT5K3KSyLAaSwoIRdBBPmJ+z68pRubNZ7uAuTlNU5hZkL8i86Lh7y5QAIggdyHmcdABvtDDCgcdr+fXFCNKFX4XMD1fmmxcTM9lECR4K3KB4LBKcwWACHK3I7wI2uojJs0pHCPwQOOhUJMdMcgFTCJompMYbM6eiC28QH4HA2m/Yq4FeSsyVwP+7gIFgAhyb8rwIGi7j9jYZaPnl3KuY9Gn6S8XInOAXMDcnIQW/2qBNGh3Df0dHyYI6utiVWSsHR65TAEggs7xEfMagQndH3dT/SRT0q7UNDVU37rX9ucA2AVslnOI0PZ+MR/znLXrSkV9U1N9yd4oKbkj5q/IZbLDio0KWELQCT5igOeXGHhadnDpJF+pWB4YlXJNMwh2AZvlJNff/p/KjyRND5SLRVLvwMkxiRnFGi2oIqMS8MhFCgyD4LvmI3bRKLzT1Q6P4DstD+y84xWACDpeY1iDRQUgghblgW86XgGIoOM1hjVYVAAiaFEe+KbjFWAhWPue/YNywzLfcQUEEMxCUEBumAUqYHcFIIJ2lxQWaJ0CEEHr9IK57a4ARNDuksICrVMAImidXjC33RUQgODAwFDPE21N82B57WB5rbameajnCTFgElzB7s2CBb47CgyD4NCv/yXJK602/ymvHfr1v++OTAJ62td17cx3HS/w8nOXGv6AQZoEKKbPYglBkr+yGnP4GBzLalxAoXDvuiNygnXt7zw9x3Pa4Ue/Kb9c6B1+QEGHWATnh+8wCgAR1PUP8M9/DIKl1YPltbp+kxX58Yu6s00HzjTtb3j2I1OHPQ9MrSFUybq/um4cSp4V4iMVS32Cp8Wnnqv7bYjgsZWA2sFTJigrIH3oRfHaMUHp91/qCKKvKXuK56ILGto5ADgBJhsVACI41PMEOP+xKCSvC1mvM037X/b95483v59qyGQl2++Qg4vu5f2t40T+cfsKyqoUtZV3Lp/KLmwnvzOfkxPYCOE5AUVQnr6pxx7TX9WvfXJhkWzqsVaTv03AmTCZIIAIkvsPA2pJcxakxieuXRD3RfquTYuWpsYn1p76kn5XW9PMlvFE/S761xP1O9nplo6tikhN4mLicicTJOG5LfpQmsaKODkd5ofXPr24SBaeq4+cTBDaJ/lxhlizxvbAI4ACQAQH7xl3IUlzFnTnF+KXrifNWfDT5e97v/5uc3yiHtB7teyS8x6RCJ6o32n2w85jemxlRGoSLIztch/6+XKCXBp9sOpXs3AhnJwO88O/Kk/x8kotf8V0jKxatrzo+fDficOc8g4fCEJwzfw4GrikOQvog1Vz/8WLIK2kGX+WZkRrI1JTYJkYh4n+J3f2LQgQy0IWbjl57dHPr/W7UZ6crHG2ox+emvQijrYa52FqWpxyzBDkmFUtPOQqAESQvRBzEUw2IGi2ENMVCEfQ2ojUQwCwdH3P2+7mZ30Q7iUNWXG+lQxozJPTMX54rfLMLGzmZ93G/QcZNV42/uAjeDXIBY6bAkSQvR1hgGNmQSbFbDtiLYJWR6TmetdN+tTXeyHRRzL7bI+W63J3lB9eq8mPk5nPgotlEcdY86JJI+EvJgoAERzZTRm6bOGzoNURqcn47CYud5PeEIRWeTpa7L29sp/rcneYH/7V3RQvr833/maaMtB4OFS2rPBXeC3ISGLhAIggaSJ2wq1payNSc1zub9ovZRz4/Pq9mvrGBsUPRdkJ40S+ydefDTnRD6/96cJCGevST/v060WyqSfajBeHFgYAvmUJQT2FDv6AztqI1Gzv+qar6j+VJbmb4qcFe0tQEeYXOjtp/7etL+nph53ToX54rfr8fNn0k+30tZ/26Tfx8ojcFrMdOmQNoMAwCJJnOfExBXeNSD30/MZqv+DtD8jPhvuacyM94/Jx4+4EID1MphUQgKBjpXpLIlK/6TgV4zkjp/H3nvzF3pP31ZJ7cvgSpICrEXx7IlK/7ij65NvHz1Wln12o+x8EUBB9VCZXIyi8pTDnW6oARPAtHVj36RZE0H3G6i1tKUTwLR1Y9+kWRNB9xuotbSlE8C0dWPfpFkTQfcbqLW0pRPAtHVj36ZYABJ34AZ376AZbajcFhkEQ+ojtprRJQaTp+Gqn232K16dxgEvaEoLOeFjLZGCG+0W4NXi4klz7Pm06zm5wO7Nxf48DXNJABEf2yKpjfcQ8z+ITbyq3+YjDP35kNA9ReGk1X8fLpYnfPht9j42yTceu/VMYQe0OcEkDEWQ/uK93Khk8nexfzR7cd6yPmAdB0qYh9UCw2PMq1hOiuv+WpYxFPcRRpzpH3TNTpqbjEVDg2lPs75IGIsi2LznQR8wbEpsgiMFfH55Li48M9JL7RyTsudZFxiSmHEkmJmKC0HaemiENmx7pE7yNelqPGp/+jk9myqdGRWKBexUGCxFvgby18yaCYnKTj/X+3lywO2FqgEwi8QyYNDsxrZAOnsdbI2FqOh56UXEkaf7UYF+ZWCwLmL467+qN01uXRAZ6yrxD5m65SPmwaOR4S+NtKm+i3dpvf5c0EEHn+IgBkar7WvOiPcPWfv6gtbu9+sKGidKwLMUrvSmObSImiAHF3kDZ2qvVx6Z7xn6lpqY83W93PgoYl3bn3seh8vW3/6RGkL9A3tp5E4EeZMJKHzRhajqmKpuQekXR3NxYeSk1XIyOWXSwqKK+sa70+NIx4ilH9f740dN+ehTs6ZIWhCDXxGkvHzFvpGrdn2Upvn6byvRP3ZFrLRa4p7afz5f5quwjme/OqjfPb6zyC8tS/E0QWtUX8+WzPuvqU56ZJV/8zVMtQYAK5K2dN9Fk8WN7kK31QZuZjkkEZTP0lwvkE//Gibu/LisYi8sno9qOovYT5HdSXFzEtsqYaDOCX4AIshdiLoKMidNGHzFvpOrB9rxIESqWYoaXRIRga26+5DERDz0vXCYLy24aJPoefTzZN+n6r3893Bs65sOS/w4N/fvSEvmMT8iLQWCBvHGyeRMJfg+y1T5oM9OxCYLE6/IUmWxD6V/UOGp7z83Bpp/sGFXtJy+H7O2SBiLI3o4wwNndR0yKzQmJTRo1JaEZZeonxtfTF694rMHklDdPRm86tE++XuwVtWPvMt+I7MY+gtD9diNZNv5gwwBB+Tl5C+SrnbdJIA+y1T5oM9OxKYL9FelybN0t+nah3kdD+vCAgji//fQsaFeXNBDBkd2Uoedh4T5iOj/1rzFSte5/dzZ6S+ae6zVsJQy5uCbiwcfHIrAFX1HfpKZ7eTc1AEWwxRd/oq4J/y77SOa1tbKfIIAFGgomCGPtxjRWIsiDbLUPmjA1HQtDcDS1n7wWtK9LGoigc3zEgEjVr5pyozDPGVvOl9Y2NTfUlBXeaSO3xBwT8dBAXVYQlnhFf/evX3kjOyv/kf47Tvt/3OEjW1tCXVHyF8hbO38iOCZ39e4wccCSI8WKllbF7VNJISKfHT/2EwR/jQRhajoWhiCoNP6m/lxz9WZ1c6ey+3H1V2vHS2POKLWE1m7tJ+zukraEoBN8xMBI1YPPFee3x08JkIvF8rERiw/ef0HdYza3BvdXbvPCVheTXy3JeQ08OhCMvV/wC31zmq9A3tp5EwlwTG5rfdAmpmOhCBLEaGm//V3SwyBIjit8TIFDNyhBkA+abToGFeSi9OHb7wCXtAAEXSSHm1Q7Eh80bTo+0kTdb3dxP61qf7/KAS5piKBtCIzQB02ajgvbRsGTMta1vw93gEsaImgbgvBsmxWACNosISzANgUggrbpB8+2WQGIoM0SwgJsUwAiaJt+8GybFYAI2iwhLMA2BSCCtukHz7ZZAYigzRLCAmxTQACC8AM62ySGZ1tWYBgEoY/Ysnw2vAvjF+vFs4TgqPMRk09o/v1L28MGfDR8umoDfgQB4xcz8gERHNkjq471EQNCvLq3ldgBzlxmdN3iAIgg+8F9tnHY7NipPmJ+BN3dSmx/Z65bkMc0Eogg277kQB+xtT5c0s3+dlmJ3/n4xUAEneMjJqz14VJfqPBWWYn1U7s9nbnMBOMWB4IQ5Jo47eUjJqz14fJ8p4ebW4kd4Mx1C/KYRgIRZC/EXAQZW6eNPmKrfbhcBN3dSuwAZy4zum5xAESQvR1hgLO7j9hqHy43HjHlAHJjK7EDnLluQR7TSCCCI7spQ5cr3EdstQ/37bMSU9eC9nXmMqPrFgdABJ3jIyZsjkfs9lZi8kta3un4xZYQdIKPmPq8o7fkUFJMqC/mGRyzfOEksV9GNRXKl885S04ZT8sOLp3kKxXLA6PIKMPubiUm7O/MdYvJj2nkMAiS+Zz4mMLwPlam4aP1QFAX2FZiBzhzR6s2/O0SgCD/ifZKtcrHaq9K7VvOSLoA4xczY+BqBK3zsTLNHk0HI+wCjF+sH0RXIziaWIJtcYkCEEGXyA4rNSoAETRqAY9cogBE0CWyw0qNCkAEjVrAI5coABF0ieywUqMCEEGjFvDIJQpABF0iO6zUqIAABJ34AZ2xXfDonVFgGAShj1gYCaMhvrBDggUL675NuSwhOOp8xMJNxI7ICdZ5mPjCTmqMQ4IFgzttt3eACI7skVXH+oi5T+0Tur+6bhxKnhXiIxVLfYKnxe+C2aMAAAO6SURBVKeeq/ttSB8wcUnBz8NHI+Yp00pxh40vLLwK4Tl52+ielmQgguwH9828w+xfneoj5oyQ7uX9reNE/nH7CsqqFLWVdy6fyi5sJx825OTkHTIyUXhOQBHDxxcWXoXwnPyNcUtLMhBBtn3JgT5i/uC5QuMRk0MmCc9tYUXDpseGfMPcbvz0RmpUsA8mlniPn73hjOI/dLBsbk5TDoZ+uZIgCz3cNEDwN9U0vjBvHm4VoOjA3JzWNcb+wYL5UbdrKhBB5/iISe8RFvJhfk27UtmmKFfg1PPSBH/4XXrGYpuIh36+nCCXRh+s+pU+j5GGGjl2TmBAYW5OwKgDmmoSX5g/D7cKQvdKVVfV0NbV9bjq4qZwaeD2ir8MMb8xk2Zb1xh6UnczS7IgBLkmTnv5iHmD/4LC7/Itmv1P7uxbECCWhSzccvLao59f6yOBmY4cQ6b+gB1QmJvTNIWZBXmbSk87EUdb6XmYP49pgQ5sjHtakoEIshdiLoKMrdNGH7Gt8Yip8dT1PW+7m5/1QbiXNGTF+VYyoAzPqPMHFObJaXougyBvUwmz+MK8sYxNC6Sa7JjGuKclGYggezvCAGd3HzE5HrbEIzaZUvp6LyT6SGaf7eGJXAwKKEwiGIqZ7J0Hm7MnYgsvkOHQyTFlrgX5mkqYxRfmzcOpwlGNcU9LMhDBkd2UoZEQ7iNmIWSMCAwMv8s1EbPOJ/VXno4We2+v7KeCSGPRp5U0RgRBgAIKc3MSWvyrBdKg3TV9VOEmCOqrMzaVMIsvbGwPKw+n2Q5rDDn9u50lGYigc3zEvBF1QeF3ufGI37Rfyjjw+fV7NfWNDYofirITxol8k68/G+LmHAAH5L2b6ieZknalpqmh+ta9tj+HCG3vF/Mxz1m7rlTUNzXVl+yNkpI7YkBTTeIL8+fhhFF2WGPc0pJsCUEn+IgBwX/5w++amYg3XVX/qSzJ3RQ/Ldhbgoowv9DZSfu/bX1J3442txuDAwqb5SQnzv6fyo8kTQ+Ui0VS78DJMYkZxRotqKns+MKgPGZVDDqqMW5pSR4GQXJhgY8pGJdXviO2KZjvfeeluaclWQCCzpPQXWsaHfGFHRIs2AlDAhG0i8ijIb6wQ4IF20Udy4VABC3rA991uAIQQYdLDCuwrABE0LI+8F2HKwARdLjEsALLChgQtJwLvgsVcJgCEEGHSQsLFqYARFCYTjCXwxSACDpMWliwMAUggsJ0grkcpgBE0GHSwoKFKQARFKYTzOUwBSCCDpMWFixMgf8HciLVs+HcVecAAAAASUVORK5CYII=;" parent="1" vertex="1">
          <mxGeometry x="250" y="470" width="214" height="193" as="geometry" />
        </mxCell>
        <mxCell id="GwhG1wv8wPMSzIeX0bUs-62" value="" style="shape=image;verticalLabelPosition=bottom;labelBackgroundColor=#ffffff;verticalAlign=top;aspect=fixed;imageAspect=0;image=data:image/png,iVBORw0KGgoAAAANSUhEUgAAANQAAAC7CAIAAACSHifAAAAgAElEQVR4Ae2deUwT6f/H9z++mWTSNE0zadqQEggEgkGDRM2CX9AgEO8viHjgjxXvGxVvBEVcBS/w1nVdvHfB+0ZEZQVBBCr31Q6u+91d/eq66yJn6fwyMz2m7cy0tNMLnoboMJ15jvfz4nmeeWbe8/kKAx+ggIMU+MpB+YJsgQIYgA9A4DAFKPCVfYWBH6AA5wows60HXzv4AAW4VoCZPeqwW/YV1/mC9IAC7QA+AIHDFADwOUx6kDGADzDgMAUAfA6THmQM4AMMOEwBAJ/DpAcZWwtfk6L9Wi2aU9G+qwz/yanAf21S2FxYFJXL7p3YuTHtfKnczMwU9cVXzxw+dqNCjqJmnuLqh1mgkj2rbBV8TxvbM8ra014Y/mSUtT9ttG0tUFT+OD2YxwveUYjDh6ItjzIn+3iFp91lzFheuCOYB49JLWgbSvBRVbJtkww8dcvhe9rYnvYCNSZPswdl4g9FG/NW+MCQNPF8jcKIA0XdxYVSCA5IvtXC1j8ZwddweYknBLnHn5UZp0nKYj58eOIH4oJHxB0uM7dbZVEeRRX1+cnB3ggPgtwgCBaIPAKCJ8Un7b1QVCtnqyNLmmZ+ZaQSfb0MSshD3L2Hh05LSMo4fbu8SVdCbmVpb7d0kblJQd/nacjD+8KMsnam8bfx6ipfGJLM+0Gm0NWN6MAUNecTpRA8YuOdFiMuqYobyNre3q5oLH/86EU9c3MOBL7Wm+t8YP6UHI7gq/l+jtANDohZn7Zr1660rRtWJkQFIBDEC5h36nmrngLUOlq/baASitLXC0UVZAmHx27YsXPnju1b1i+bGzVCAkMQMjL+UEEd+ffMdLrF5bSw57tWq+vztpfI/y/rdHj84tDo2dNWb91w56UWwWu19MqiTTfWDoMh8Zwz1XrTQ1RRk5vgDsFB2+61sFfJQFb2g8lvHQ2fIProS+10E216lj3DA4akLF21OZViP8ZAJSZ6NPDpl1Be8/jU0q8RCPaMPVrSRnQN9Oyyl4HlWwvhy6nQzfPi956MTt65+dHrbc+aluXe2fK4XgtfTgV91ijacndTIAwhcacqte2B916ys/ESiBe841EbTq28Oi8lZlygt1jA44u8gyYv/ja/XA2lkazy4r3hPDhg091WbZby6ntHk+PChrkLBSKfr6OXLIv2g3VzPtbECZXd3P6l+fAnZBZr+lRF4/PLGYunjPIWCRHPkZHzU3Of1Kv/hFBUUVtwatuSmRGjfN0RHg+RBkTuutsiJ/oVvaZtb29v+mmpFII8V1/X9vGK+qe5qfMjAz0Qgchn9JQle/LLNXMPRU3B8eSZof7uAp5A4jsmKj7rXhNqDBOKyp/vi+TD/sm3cR2MVKKvFy18JG0lOTESCPZaeAGfIZEd58Bl0baIwYaF8FGvM8LjF20ueK0FjrqRUWaQne7X1oK0YB6EzDj+StOoKKqQfT9XDPHC9xaTRKKN13fOW7xu287dGTs2zh/nCUP84O33m3EujWQ1hE9Rcz05WAhBktEzV2xJSUleNHWkCHJz08HHmjjRSHBgfOr+A8Tn0NmHNcQMAW0qzJrqAUNI4LQlG7ZsXD5jlASCJBNS7xL8oShRDEg4MnrZhpQdO1M2rNh6rqyNHr6W/BWeEOSx6ioJn6LhfnqkBOb7RS3eumt36uroEUKIF7gq77UCReXlJ2KlMM8vaum2PZmZGSlrEhZkF8k1NFCmB2bBZ1QvJvhwnRvzV/nAkDght1ahhs/odPwwVll0ra6/xRV8Mipz2m0W+FB5cWYEHxJGH3mpntSjiqrTs0SQcCrtTAtFG+9sHg3Dfutu4p0fO3wo2vJw+9cwJJm670mTZu7YfGfTSErPR9XBKHH68QVnKytSACHhqffqSRbRxqKsqXhnnVrQgqJq+PQ7YNqmRVtenE7wgSHJnDNVOEVo29O94QLYf0GueiUIlVecifeEBZMOlMoVr8/MFkLI/PMNmrqQhbew56PAqkmHnPMZ9s24zorqU3FCN3g0sUhgoSxUqanbFsKnP+ye+M+61M0Fsq1FDYtP5a/Nf6aFj2nYJel5eTQGgQQT95eS/Zz85bEYBBITIzG1iCgqb2moqWloabyyWAwJ53xPjACGSy16PR/aVpD2NQx7r8hr1E06aed8DIkzqCwvygjjQdJFl+p0U1Vy/krwxg4fPHLOtj179367K3VLUuLUkWIY4vnPOV5MDKyovHBnMA8etupyeaX2U5wzQwAhCbl1cqL7gQPmn3zWQJ2l2AM+tPnyQgSC/dbfajXOTs2uKVmorUndthA+gwuO+L0nJsQvCpsRH528Y9PDai18TBccZAkUstwEKcQbt/sJ/rcvLz0wSQB7LryoW3+RV989tGJqkJQPQW5uEIyIEAgSxp3CF1NM9HxNlxYgED9qf4lmTMdnkPrrfKyJM8DXfHkRAvEj9z+nJIvKK0/MELgJZ56qwgdI46mnpudTzyAh/OPmBgcmHi2QEVNb/E+x8WIiAmlmmLr/3dwEU3LK2xRt5RfXjJVAECwdE5u073JRDVEAYxrMGnYH2vPNNNXzmZKFChx120L4rFxqIUuAoo3Xk4bB8OiU+y2o/MnucTw4YP1NzcISKi/eP0kE8fynr99/+tJP+XmXTyVHCs2Er/FCIk7JPiolVPhMJc4AXxPeC/Aj9Zg2Gz71oIaijQXfRokhOHDFjzINxCjx1wKPWnEi/5r+5/rD8mZSrtbqwotZa6IDEQiCPSam3cb/SFtvrfeD+RMPaG7zcA9fA7EmK5qXS2RHuwKFmpKFChx120L42tvxexiWLTJTsycuO2C/VfnVtzcGwryQ9ELt7Qd56YGJfNh7eZ52otOSt9zdTPiIUQySzj9foxsfqfCZSrz17sYAmICXWlpUXpQRyoM8Fl2mDrvNN9cOg+GAjXda2Ydd3YwKlZeeiPOCYd/5ua/Ul1ZtBalj8HX3C5SUqVlrt9GWV9e3RYog/Pq7TdH2CL9rM1x7jW8SPvp6qdf5dCUks0PR1p+zp4sh2DPxPH7dg1ooi7bwBhuWw0fyR73s1Y625t9eQ+UvcqYikPvUuTGeMDKNekdBXp4zRaC+DUIW2gC+J7vDeLC/9vqDOt6haNuzvRECSBC8/mqVpnfRg89U4s/3R/KN7sGgqPxZZoQAQiLTHzaoLzianx6Idod4X29/OKALDvmrswk+MOzzTW6l+vYgcYUkHJdyt1Z/4d2gwfD5w7M943iw/4bbrShaj9/YgYPW3ahTl8dwqcVAJYZ60VxwoG2ygmOLRgsh2CPm8HNynU/OcLoJWYyrQO6xCj58scq6Bwvw+dDFhV6wm5sb7L34ErmcQZYMlZfkTBVDsDQkfv2OvVlZWZm7Fo0V6Ho+Rd3lxZ4QJAlN3PXTizZFGxU+Yhb1KBNfE+F5j4tP2pqatn1L0uxgCaReamFPHG9g/OITgj3HJ27cnrplVXxMyg1yiaexYO8UKQwhI6OXbti6acXMMRIIEo9PuUP0WKxzPr1+BUXlL0/N9oDhYcsuvya4UdTe2jZODEEC3wnz1mxJTd2+JSkxOmoLvgqoqDm3bFzMks3pmfv3Z2Vsnj9OCsN+Sy8TF17NBenjEQgSB8Us25iSmpqycWGEJ6xb59NTSY6itPXSzErhgJikrdu2bd2cvHrhzPHDEMgNEgyfve8+vspCNgrt6YTabLLYCj6mdM3fj7bc2xoEu8Gjje9qyKvvZq+OCfFzF8AwH5H6DB8zfmr8ntsN6rs9beVXUuJCfKQRe58Zw4cr0lSal7lqRmiAVMjD76gOGxMZu3hXvnqkM5E42lJ6cVtciI+IBwukAeNm7bwuU4/gisafL+1aPDnICxEgHoGR32w/W6QZK82HDy9eW/G+iQjEC0krUK+cK+qfnd+1eMoYHzEf5iEeAaHRS7IfNChQeWX+zoSoIG8RD4Z5Ip9RExNTc5+RXS/+d1J15+CKaaO9ERgmajl6Qkzi1gvaWSBFJWJNh6ZeKKpoyN+gu/sslHgFBE+eu2rH8Ruljbp5C15mi2RhgsHano8pXbAfKGBSAQCfSYnAAbZSAMBnK2VBuiYVAPCZlAgcYCsFAHy2Uhaka1IBAJ9JicABtlIAwGcrZUG6JhUA8JmUCBxgKwXMhQ+8nw8owL0CzPTpvZ+P+TDwDVCAewUAfNxrClI0UwEAn5lCgcO4VwDAx72mIEUzFQDwmSkUOIx7BQB83GsKUjRTAbPgU/V19v3+vLcpt/v1oe7Xh3qbcvt+f67q6zQzD3AYUIBWAdPw9X9q7n6d3V2dZfjzOrv/UzNtok6xs/9d8ZGNu+++VbKXpv9DVd6xi+Uf+9kPA9/aQAET8OHkyfYZYqcFUbaPA/766o5P8p9wSNbNbfWUTccikKiTLTh8LFn01R4MEcWe/8UEo9yWDaRGKMAGn6rvi0GfdzVn4aLYsF2rp+lwfJ2t6vtCK2Zf1cPO48s6jy/rq3pIe4B6pxK9tm7O6iutvbQHqT4XrvPmjz1Yo/91b+2hUEFASil91nhKVPhYsgDw0cpul51s8PX9/lwHGdHbrZwb/ntxusHOvt+f0xa187skVccnVcenzu+SaA8wc2dH8RZ//pjM6h7K8T2yfcGCoIyKLso+g00qfAZfUX8F8FHVsO82G3z4FYZ2hCU2FswINdjTXZ3V25RLW+bOwwvJ/doN2sMwpfzMVFH40UZ84FN9ab2VPnesD8IXegRGbbn/Oz4V63yRNoIflFGhG5d7qvaOFgTvkxE8Kt/eXDthuAfCF0hHTFp5svx/5AhKhY+aBYZhPW+LspdGBkiEYv/whMQp3ggYdumbxsZ72eDrqdG7zkiM+Tf5czVnIRXBnpps40J2Hl5g8GN8jHoPhQx8Ewlcnlta39JSV15YjpK9XY8sK1gwYkeZpp/rrsgYKYw41tRHpKDqkL98XlnX1FT7/MKaYKH/5mf/qAyHXSrfHRV7QoVe09PziysrS++fWTteLATwMbaOLb8YAHzd1VmJMf+mYkducwhfX3XmKGHk4ToNZZqaK1tORAmGbS3uIHZ0lqaOQGJy242vEZTtP0SLwnLqcSoZej7VXw9WSkVzr/ymvrwFw65GZPv/zwaf8bBLCx/tsGvQ7XUeXsBYN0rPh/XI85eOFLqHfJN+7knLJx1dyreXZom8kgr+UmGqz0UbfN3nX/1DszjS89vzk8mzJ4zy8/IdGRLowR+dKWOBr68uO0w47nCDJm0AH2PD2PwLNviMLzho4aO94LAQPnza1/nrq2sHloRJeX5zc5s08zzVx3srvNwX3Hin/HB3madfctHf+NCKd3CK3Bix18yse5VNCkVzceZEoQn46nPChGE5deSQjWEAPpszxpgBG3zGSy008DEstVgOn7qonbXZEcKR31ZqV1g6SlMDkWmnn/wQKx6zp1I7MHcVJomQ5fc+Eyz2v8ubJ6LCF3m8Ge/iKJ2r6vPjdV7C6Wfk6oQBfIxs2PwLNvgwDLPHIjOFDOV/S6/dKZE1tjTXlvywdIRwIrlGTKrQ13wiSij1kCLTvpdrBk0MU7acmiT0mX3wwauGltbm0oNTEDV8/b9dmSN0n3XkxduOfkoWGNbdcGKqRByWdKagXCarLj23fBi42rU5Z7QZmIBPzZ9Nb69RyOipy00MHybhwzyxX9jc1KuNHerBlSh7/7ubi6Sw18p7H6h7sc7WW+nxob4iHk8g9hoeMnnlj20Em6pPL49+E+Ibcbiul5IFnpLyT9mVtIRx/mI+TygdNnbawuySj3pJ0koFdnKtgGn48GkYeLCAa91BehimH+YeKAIUsKcCZvV89iwQyGvoKADgGzpt7XQ1BfA5XZMMnQIB+IZOWztdTQF8TtckQ6dAAL6h09ZOV1MAn9M1ydApEIBv6LS109UUwOd0TTJ0CmQWfOD22tABwp41NQ2fq/p27akiyMsiBUzAZ49HqiwqNzhpECjABp/xw6Q28e0OAhVBFSxSgA0+48foHeLbtahe4CQXUIANPmMDkU18u/3vn+1bMC10uKeIzxf5jl+cc+3miY2zwvwlImnglPUXasgn5HEt+/54cTo5LszfXewTMjftehPxqCmt1Zd2J8bg8MWfmP1Tdnn73FBfkUAg8R0zKT45j3jNBn2OLtCsrlFENvjs6NtFRq79sVwmqyq+tDaYD3vH7s5/VlH18uGh2d78sQdek3aLrpqcSMmopd89rWmuLzm3crRwVHp5B2HPMLL64k8uG+3EMAaHL9bdeGq6RBK+4dzjl7Lq8vu7Jwk8tvzcg2H0ObpGw7pCKQcAnx18uximfHsxDvHfUU7y1vMyfTgSk/tGiWGqzwVJnl5rcPMk/ul/l5+A+KeV9dBafWl36jUH1eHb8XSjj3Dq6TYyT9Wn24sRHD6mHPXSAb9YoQAbfMbDLo17jeF1GRa71zoLk0SilQ//IeqkbDs9GRlPmGz76nPCeDBfiGg+Ah6ELLnzqZ/W6ku7E6N3+CobDo8Xjj1UqzZTauFjyhG4PazgTe9UNviMLzho4ePWt9vzbIMYWaa2Qirbc/E3EOAmW9zsLQhKKVC80X3evu8grUJ0Vl8j/y+Tw7ev7lCokCQcl0YHH0uOehqCXyxUgA0+46UWGvi49u0ywaf668EqqWCKZnCkq66R1Rc/SLeTyeGr+vP2ErEo/kf1CzS08JmRI10pwD6zFWCDz/6+XfwNUgw9H4Z1VO+fgEjC1599WFYtqywtyHtQ16HCaK2+9DuZHL6qv0u2j+L7ztp3u/x1Tfn9owsCeeQFB32OZmsLDjShgAn47OzbZYUPw/relZ/dHDfWV8zni/1CZu4uet+P0Vp9aXdijA5fTPWl7e6eBRODPBHJ8IkJM8bwvVJKiBdk0eVoQlHwtdkKmIZvqPl21fNM4k1XZssIDrREAbPgsyRhVzpHiT776faTclld/euyO9kJAaKIw3XU96C6Ul1cqawAPgxT/f0iZ17EKF93oUDsGzxj7fHiXwF69oAYwGcPlUEetAoA+GhlATvtoQCAzx4qgzxoFdCHr+wr7gNNgzSHuAK03BE79eFjPg58AxTgXAEAH+eSggTNVQDAZ65S4DjOFQDwcS4pSNBcBQB85ioFjuNcAfPg6+3tb32jLJX1FZb1FZYpS2X9rW+wXnUwAc7LBBIcIgqYhq//jw84cw9LDH8Ky/r/+DBEZLJBNbuarp+81qhzR9kgC1sk2dVeePpSpSYEj3U5mIAPJ6+g1BA7LYgFpfbmT/Xlt7oXlaheiATrFHDM2T2NJyZLxmVWEjEKHVMEy3Ltaf1+hjQ4o5yLgrPBp+rppe/ztPA9LOkrLFP16I2/te9fnqrOOFm9q/L3ny2rH9tZvVV7RiKzLv9XE3gNP7a7eJMHP/jbV2RYQO3ZyvbzcWJh/E9E2FTtXqfY6H9/e6l3wIaiT67oB+mqzhwriT1HE3dxoNqywdff+oaxz6Pwh8//KJ+T1bs+df3v7+4/j1amUnZztEkDH25kE7pBSPRZuSagGv4M4oeCJD/YjT+BDOTLUfbcJENY50IP1rroszPKN+diRaGGsd8tkIYNPvwKQwPZgsnT18bFL50ec2bDtjWxs9fGxZcd/Z78Vlkqo2acXbGN/DW7Yit1P+M2vcGbwSKOwwf/i/i4uYnWFXVhmLLxaLhw1Pgwj+GbnmrnIj0NRyLEoRPCdDZMhgRpc6fdyZnnXPn2QqwoeL/ajuyCnnnlm9wYTWRZxmY14ws2+Poe664zFkye3pybh166sWDy9F+u3Go7f3VdXLwazcdl1IxyXuHwZVdsNfihHkPdZjB4Mxi2iZ5vak65XKFQKNrf4XO/3vId/qKl10oOjpdE/6Ag7WwfH6z2HZb84PG3QeIV9z8T2dEnSJs77U7uPOcdhUnu7msL1bMEIjMX88zjrSBKyH9HnfxQ29TMbXPhWzIthkRtweTp5MaiKf+hhY/M2IA8ll6Q1uDNaNgm4NOf83UUrBZ5bn3e/e7mIq9R6eVfiCCT08RRx5u6Wk5GiWdefOtcnnOi3wg5UKOeI+DwicLVkwMX8cwTfffYgxqrs5msGR3GBh912DWGb6EGPoNhd6Dw0QZ4ZjJs9xvDR4Q5HZVZ3Yd1vfr2a88FN/7458WOIO/ldz/09/96aZY4/EijEsMYE6S1l9Pu5Mhz3q9sORmFRJCxWPXDseJOT5fwzOPTbNGI3a/0rjSN2DK5gw0+6gWHFjVtz6fdY3DBMWD48KsDQ9c3o0W8t2pPkP7VLtFzkJcVyjfnZ7pP2LJjnmdIZlUXhqk+3lwoGrEbj9nLmCBd7ngVjIrEmedc2Z4bI2Lo+Rido05UfvwP5u2FmaKQg5rO2yRlDAewwWfZUosl8KkLpzN4Mxq28UZAIk+Q75AiTsOjNSPTfyCu/FWfHq31hSFk5oVfiLnfl4LVIveNxT0YxpigThdd7rp9NvGcdzxKcndf9/gLmY3esMsInzOVH8N6q/YGiebl/WHDOR9u2rX9IjOtwZvJIo6p/n601kswNvnH0urKknuP6z73975MD0Dif1Sv5vW03MxMz32lvurt+XmLh2jpXeLlQvQOcNrc6Xdy5jlX/nJuhkg7YzIPPiZB6ItKFzObMSr2wD3zyrfnY0Wh2fhbTKz6sPV8ZMK2vr3GYPCmt4hjGNb7tmD37DGeQr7Yf0LS9fa+nuJN7sji27Trtb2vMoYjcy6rX4RB5wCnzZ12J4eec6Xi7DTR+MP1xJTJXPjoBaEtKu1O7sqPXxWJQ/a/tnqZ0jR8OILgwQKz/8LN8pz3v7u52Gv4Zt2ypNnJ2/xA0+Xvku0Pk8TkosTExqrymAefVVkM+pMt8Zx3NxydKAnfV+0MN6kHVP4eee5M6dc7y7h4IgLAZ/XfhoWe886G/CN5dVy0oZU1GFj5u9CHx8+9VL+i08qcAXxWCghOt1wBAJ/l2oEzrVQAwGelgOB0yxUA8FmuHTjTSgUAfFYKCE63XAEAn+XagTOtVADAZ6WA4HTLFQDwWa4dONNKBcyDD9xes1JmcDqdAqbhs/WDBXSlco59/e+Kj2zcfRd/EJrt0/+hKu/YxfKPlOeLcE/u1Yb3KHcWV7YCuOx3JuCzwyNVA5bObtZdZdOxCCTqJPHsYF/d8Un+Ew7Juo2Liz9QKIo9Tz5BiH9NenL3vvrYwp3F1TjbQbCHDT7LHia1rW8Xf8TGyLqr+vPmIkS05lEnbYOoPheu8+aPNbT69dYeChUEpJSqn+mkOZUKnxK9tm7O6iutNA+OG8BH9eRyZ3GlKZ7r72KDj/oYvdorpHFSUn81eIzetr5dC+DDsI7iLf78MZnV1AfQemT7ggVBGRVdzG1IhY/5KEwfPn1PLmcWV5b8XfcrNvioBiIb+nbxB6YHEmsZ7/n0rbvUno/Wctv5Im0EPyijQjdo9lTtHS0I3icjeGQIAk2FT/+RT6znbVH20sgAiVDsH56QOMUb0Qy7+p5cDOPK4uq6hLGUnA0++/h2sYHGWiaGXT3rLgU+HBKaMM89sqxgwYgdZZp+rrsiY6Qw4lgT+SA4QxBoJvhUHRV7QoVe09PziysrS++fWTteLNTAp+/JVffTHFhcWZrQdb8yFz5j6yRXvl1soLGWWed8tC5g3G/VciJKMGxrMenU7ixNHYHE5NK8boQaBJoBPtVfD1ZKRXOvqB/O1xt2DTy5pNErVmfYcF1QbFFyNviow64xfFrrpJW+3YHGWqax7lJ6PloXMC6c8u2lWSKvJDxSuepz0QZf9/lXteYr+iDQGAN8uIFOOI6IQE20CHXOZ+DJxWcU3FhcbdH2Dk+TDT7qBYcWNc59uwOOtWxs3aXCR2e5JVRWfby3wst9wY13yg93l3n6JRdp3uvCZMhlhK8+J0xIRqA2hk/fk8udxdXhoNiiAGzwWbbUQpbS/NdlDDjWsrF11wA+tU5GPtyO0tRAZNrpJz/EisfsqdRM/zCmINAkfJHkqwUoFxyqz4/XeQmnn5Grl12oPR+m78kl5nycWFxt0fYOT5MNPvv4drGB+kaNrbsU+Gh9rBqV+5pPRAmlHlJk2vdy3W0LRkNr/29X5gjdZx158bajnwIfhnU3nJgqEYclnSkol8mqS88tH6a72tXz5OKjPTcWV00VBtX/JuBT82fj1+IONNayoXWXAh+DZVXdZv3vbi6Swl4r733QeytjZ+ut9PhQXxGPJxB7DQ+ZvPLHNoJN1aeXR78J8Y04XNerBx+GKf+UXUlLGOcv5vOE0mFjpy3MLvlIJqnnycU4s7gOKug0lTENH36kHR8sMO0b1RTdSf+nenK5s7g6aWWtK5Z58FmXh6mzB+QbNZWYE3xPenKzqv5s5c7i6gTV4r4ITgDfwHyj3EtggxRxT+5Pte/k3FlcbVBIxyfpBPA5XgRQAscoAOBzjO4gVwzDAHwAA4cpAOBzmPQgYwAfYMBhCgD4HCY9yBjABxhwmAIAPodJDzI2Dz473l4DTTJ0FDAN39D17dqcgqFu7zUB35D27doYPmDvZYPPsodJHeDbdfWQu0PV3ssGH/UxeqpR12Db8b5dwijhyiF3h6i9lw0+qoHIqX27rh5yd6jae9ngcxnfrquH3B2q9l5z4TO2TjqRbxdz8ZC7Q9XeywYfddg1hk9rpnS8b9fVQ+4OVXsvG3zUCw4tas7o2yXcPS4ccneo2nvZ4LNsqYVcHbOrbxd3zrpyyN2hau9lg89lfLuuHnJ3qNp7TcDnGr5dVw+5O1Ttvabhw4dROz5Y4PK+XQwzqwrA3uscHo5B4Nu1pArA3mtez2fTW+yDwLdrYRWGur3XCeCzKdkgcSdWAMDnxI0z2IsG4BvsLezE9QPwOXHjDPaiAfgGews7cf0AfE7cOIO9aAC+wd7CTlw/AJ8TN85gL5p58Nnx9tpgFxzUT6eAafiGqG/XumC71xo/671yXCe41VsDLJgS62p31rC/JuBzOt+uiwTbzaz8p58lRK81BFLjIrFkoYkO0uTcZN8AAAKMSURBVIf1tDpr2F82+Cx7mNS2vl3WwGs0berAYLssIXrxMEl2jALsrL5gNvioj9EbeHWpv9rVtztQ+BwZbJfmb4G6y45RgJ3UF8wGH9VAZEPfLm2EXAzD+v54cTo5LszfXewTMjftelMHPovC4XORYLvUuDG0dbRfFGAnDfvLBp99fLt4G9FEyO2qyYmUjFr63dOa5vqScytHC0ell3eoY9y7RrBdCnwMdbRbFGBSN6cL+2sufMbWSa58u7QRclWfC5I8vdbgAUrxDx43FPFPK+shej5k1uX/9msHMErsK9qkcGuYQ4LtUuBzcMGc1RfMBh912DWGT2umtNK3Sxsht68+J4wH84WI5iPgQciSO59cKdguBT7aOuJ/PvaJAuysvmA2+KgXHFrUOPft4m2g6vz11bUDS8KkPL+5uU3dGIaHNRUEpRQo3ug+b993KPGeL4ix56NNiugiHRFslwofXR3tVzBn9QWzwWfZUguhKWa+b5c8nvhXFyFX9deDVVLBlNNt6pi22oNcKNiuAXzqKujqqN5hjyjA+JzPCcP+ssFnH98uQ4Tcjur9ExBJ+PqzD8uqZZWlBXkP6vDLXRcKtkuBj6GOJH52iALspGF/TcBnB98uY4TcvnflZzfHjfUV8/liv5CZu4veE1cZLhNslwIfYx0J/GwfBdhJw/6ahg/XBzxYoB4jTf1HdeOaOtZ+3ztr2F/z4LOfTi6fE+nG3VdNLIk7RW165M4a9hfAxzkguBs3r85mT7UMuLxdqLOG/QXwDbgxwQlcKQDg40pJkM6AFQDwDVgycAJXCgD4uFISpDNgBSjwDfhccAJQwCoFAHxWyQdOtkYBAJ816oFzrVIAwGeVfOBkaxT4fyM4wdNtupZ1AAAAAElFTkSuQmCC;" parent="1" vertex="1">
          <mxGeometry x="550" y="473" width="212" height="187" as="geometry" />
        </mxCell>
        <mxCell id="Xn2WeQvNLTuZHcaYIGUO-1" value="ServerRequestDecoder" style="swimlane;fontStyle=1;align=center;verticalAlign=top;childLayout=stackLayout;horizontal=1;startSize=26;horizontalStack=0;resizeParent=1;resizeParentMax=0;resizeLast=0;collapsible=1;marginBottom=0;" vertex="1" parent="1">
          <mxGeometry x="-60" y="80" width="290" height="86" as="geometry" />
        </mxCell>
        <mxCell id="Xn2WeQvNLTuZHcaYIGUO-2" value="..." style="text;strokeColor=none;fillColor=none;align=left;verticalAlign=top;spacingLeft=4;spacingRight=4;overflow=hidden;rotatable=0;points=[[0,0.5],[1,0.5]];portConstraint=eastwest;" vertex="1" parent="Xn2WeQvNLTuZHcaYIGUO-1">
          <mxGeometry y="26" width="290" height="26" as="geometry" />
        </mxCell>
        <mxCell id="Xn2WeQvNLTuZHcaYIGUO-3" value="" style="line;strokeWidth=1;fillColor=none;align=left;verticalAlign=middle;spacingTop=-1;spacingLeft=3;spacingRight=3;rotatable=0;labelPosition=right;points=[];portConstraint=eastwest;" vertex="1" parent="Xn2WeQvNLTuZHcaYIGUO-1">
          <mxGeometry y="52" width="290" height="8" as="geometry" />
        </mxCell>
        <mxCell id="Xn2WeQvNLTuZHcaYIGUO-4" value="+ decodeParams(ServerRequestInterface): ?array" style="text;strokeColor=none;fillColor=none;align=left;verticalAlign=top;spacingLeft=4;spacingRight=4;overflow=hidden;rotatable=0;points=[[0,0.5],[1,0.5]];portConstraint=eastwest;" vertex="1" parent="Xn2WeQvNLTuZHcaYIGUO-1">
          <mxGeometry y="60" width="290" height="26" as="geometry" />
        </mxCell>
      </root>
    </mxGraphModel>
  </diagram>
</mxfile>
